<svg width="45" height="29" viewBox="0 0 45 29" fill="none" xmlns="http://www.w3.org/2000/svg">
<path d="M12.8852 0.699951C14.1639 0.699951 15.3443 0.798892 16.4262 1.09571C17.5082 1.29359 18.3934 1.68935 19.1804 2.18405C19.9672 2.67875 20.5574 3.37131 20.9508 4.26177C21.3442 5.15223 21.541 6.24057 21.541 7.42785C21.541 8.81301 21.246 10.0004 20.5574 10.8908C19.9672 11.7812 18.9836 12.5728 17.8033 13.1664C19.4754 13.661 20.754 14.5516 21.541 15.7388C22.3278 16.926 22.8196 18.4102 22.8196 20.0922C22.8196 21.4774 22.5246 22.6646 22.0328 23.654C21.541 24.6434 20.754 25.5338 19.8688 26.1276C18.9836 26.7212 17.9016 27.2158 16.7213 27.5126C15.541 27.8094 14.3607 28.0074 13.1803 28.0074H0V0.699951H12.8852ZM12.0984 11.7812C13.1803 11.7812 14.0656 11.4844 14.7541 10.9898C15.4426 10.495 15.7377 9.60453 15.7377 8.51619C15.7377 7.92255 15.6393 7.32891 15.4426 6.93315C15.2459 6.53739 14.9508 6.24057 14.5574 5.94375C14.1639 5.74587 13.7705 5.54799 13.2787 5.44905C12.7869 5.35011 12.2951 5.35011 11.7049 5.35011H6V11.7812H12.0984ZM12.3934 23.4562C12.9836 23.4562 13.5738 23.3572 14.0656 23.2582C14.5574 23.1594 15.0492 22.9614 15.4426 22.6646C15.8361 22.3678 16.1311 22.071 16.4262 21.5762C16.623 21.0816 16.8197 20.488 16.8197 19.7954C16.8197 18.4102 16.4262 17.4208 15.6393 16.7282C14.8525 16.1346 13.7705 15.8378 12.4918 15.8378H6V23.4562H12.3934ZM31.377 23.3572C32.164 24.1488 33.3442 24.5444 34.918 24.5444C36 24.5444 36.9836 24.2476 37.7704 23.753C38.5574 23.1594 39.0492 22.5656 39.246 21.972H44.0656C43.2786 24.3466 42.0984 26.0286 40.5246 27.117C38.9508 28.1064 37.082 28.7 34.8196 28.7C33.2458 28.7 31.8688 28.4032 30.5902 27.9084C29.3114 27.4138 28.3278 26.7212 27.4426 25.7318C26.5574 24.8412 25.8688 23.753 25.4754 22.4668C24.9836 21.1806 24.7868 19.7954 24.7868 18.2124C24.7868 16.7282 24.9836 15.343 25.4754 14.0568C25.9672 12.7706 26.6558 11.6822 27.541 10.6928C28.4262 9.80241 29.5082 9.01089 30.6886 8.51619C31.9672 8.02149 33.2458 7.72467 34.8196 7.72467C36.4918 7.72467 37.9672 8.02149 39.246 8.71407C40.5246 9.40665 41.5082 10.1982 42.295 11.3854C43.082 12.4738 43.6722 13.76 44.0656 15.1452C44.2622 16.5304 44.3606 17.9154 44.2622 19.4986H30C30 21.0816 30.5902 22.5656 31.377 23.3572ZM37.5738 12.9686C36.8852 12.276 35.8032 11.8802 34.5246 11.8802C33.6394 11.8802 32.9508 12.078 32.3606 12.3748C31.7704 12.6716 31.377 13.0674 30.9836 13.4632C30.5902 13.859 30.3934 14.3536 30.295 14.8484C30.1968 15.343 30.0984 15.7388 30.0984 16.1346H38.9508C38.7542 14.6504 38.2622 13.661 37.5738 12.9686ZM28.918 2.57979H39.9344V5.25117H28.918V2.57979Z" fill="black"/>
</svg>
