<svg width="40" height="40" viewBox="0 0 40 40" fill="none" xmlns="http://www.w3.org/2000/svg">
<path d="M35.9774 19.1432C35.8058 15.8903 34.6626 12.8949 32.8326 10.4419C32.3498 10.9681 31.757 11.5396 30.9914 12.1832C29.1762 13.7092 26.9774 15.0861 24.3668 16.202C24.6996 16.9012 25.0058 17.5798 25.2752 18.2196L25.2776 18.225C25.3304 18.3484 25.3758 18.4612 25.4642 18.6836C25.4758 18.7124 25.4866 18.7394 25.497 18.765C28.5242 18.4244 31.7152 18.5498 34.8098 18.969C35.2212 19.0246 35.61 19.083 35.9774 19.1432ZM17.2088 4.2426C17.5566 4.73242 17.9204 5.25718 18.3606 5.90756C19.5858 7.7178 20.792 9.62782 21.9208 11.5901C22.1498 11.9883 22.374 12.3858 22.5928 12.7822C25.0386 11.8199 27.0592 10.6056 28.6876 9.24972C29.3462 8.70126 29.8766 8.186 30.2806 7.73944C27.5002 5.40554 23.9142 4 20 4C19.048 4 18.1152 4.08316 17.2088 4.2426ZM4.50532 15.9951C5.6629 15.969 6.96934 15.8988 8.58606 15.7504C11.8005 15.4552 15.0828 14.925 18.3098 14.1055C17.1438 12.0744 15.8778 10.0466 14.589 8.10756C13.9696 7.1755 13.3671 6.29984 12.9097 5.65284C8.79082 7.69226 5.67588 11.4532 4.50532 15.9951ZM7.56732 30.072C8.34222 28.9386 9.36122 27.6628 10.7159 26.2748C13.624 23.2956 17.0572 20.9756 21.0278 19.6946C21.0834 19.6782 21.1208 19.6672 21.152 19.658C20.822 18.9302 20.5124 18.281 20.2006 17.6684C16.5286 18.7374 12.6606 19.406 8.80558 19.7524C6.92638 19.9212 5.2401 19.9962 4 20.0088C4.00204 23.8224 5.3383 27.324 7.56732 30.072ZM26.009 34.8332C25.8002 33.749 25.5338 32.5412 25.1798 31.148C24.5378 28.6224 23.7336 26.024 22.746 23.4156C18.7424 24.8686 15.5515 26.9948 13.0862 29.5298C11.8981 30.7514 11.0249 31.9074 10.4528 32.8406C13.1178 34.8254 16.4218 36 20 36C22.1252 36 24.1538 35.5856 26.009 34.8332ZM29.7556 32.6828C32.8146 30.3264 34.997 26.888 35.7304 22.9406C35.0506 22.773 34.188 22.601 33.2392 22.4692C31.1512 22.1794 29.0028 22.131 26.8818 22.4036C27.7866 24.9528 28.5284 27.4664 29.1216 29.8722C29.3806 30.9228 29.5916 31.8716 29.7556 32.6828ZM20 40C8.9543 40 0 31.0456 0 20C0 8.9543 8.9543 0 20 0C31.0456 0 40 8.9543 40 20C40 31.0456 31.0456 40 20 40Z" fill="black"/>
</svg>
