<svg width="40" height="40" viewBox="0 0 40 40" fill="none" xmlns="http://www.w3.org/2000/svg">
<path d="M20.002 0C8.95195 0 0.00195312 8.95 0.00195312 20C0.00195312 28.85 5.72695 36.325 13.677 38.975C14.677 39.15 15.052 38.55 15.052 38.025C15.052 37.55 15.027 35.975 15.027 34.3C10.002 35.225 8.70195 33.075 8.30195 31.95C8.07695 31.375 7.10195 29.6 6.25195 29.125C5.55195 28.75 4.55195 27.825 6.22695 27.8C7.80195 27.775 8.92695 29.25 9.30195 29.85C11.102 32.875 13.977 32.025 15.127 31.5C15.302 30.2 15.827 29.325 16.402 28.825C11.952 28.325 7.30195 26.6 7.30195 18.95C7.30195 16.775 8.07695 14.975 9.35195 13.575C9.15195 13.075 8.45195 11.025 9.55195 8.275C9.55195 8.275 11.227 7.75 15.052 10.325C16.652 9.875 18.352 9.65 20.052 9.65C21.752 9.65 23.452 9.875 25.052 10.325C28.877 7.725 30.552 8.275 30.552 8.275C31.652 11.025 30.952 13.075 30.752 13.575C32.027 14.975 32.802 16.75 32.802 18.95C32.802 26.625 28.127 28.325 23.677 28.825C24.402 29.45 25.027 30.65 25.027 32.525C25.027 35.2 25.002 37.35 25.002 38.025C25.002 38.55 25.377 39.175 26.377 38.975C34.518 36.2266 39.9998 28.5926 40.002 20C40.002 8.95 31.052 0 20.002 0Z" fill="black"/>
</svg>
