<svg width="40" height="40" viewBox="0 0 40 40" fill="none" xmlns="http://www.w3.org/2000/svg">
<path d="M20.002 14C16.6872 14 14.002 16.6862 14.002 20C14.002 23.3146 16.6882 26 20.002 26C23.3166 26 26.002 23.3138 26.002 20C26.002 16.6854 23.3158 14 20.002 14ZM20.002 10C25.5228 10 30.002 14.4742 30.002 20C30.002 25.521 25.5278 30 20.002 30C14.481 30 10.002 25.5258 10.002 20C10.002 14.4791 14.4762 10 20.002 10ZM33.002 9.4983C33.002 10.8785 31.8804 11.9983 30.502 11.9983C29.1218 11.9983 28.002 10.8768 28.002 9.4983C28.002 8.1198 29.1234 7 30.502 7C31.8786 6.99826 33.002 8.1198 33.002 9.4983ZM20.002 4C15.053 4 14.2464 4.0131 11.9445 4.1156C10.3763 4.18922 9.32505 4.40014 8.34831 4.77934C7.48031 5.11598 6.85417 5.51796 6.18703 6.1851C5.51733 6.8548 5.11607 7.47926 4.78079 8.34766C4.40071 9.32664 4.18985 10.3762 4.11755 11.9423C4.01405 14.1504 4.00195 14.9221 4.00195 20C4.00195 24.949 4.01505 25.7556 4.11753 28.0572C4.19119 29.6248 4.40239 30.6776 4.78067 31.652C5.11819 32.5212 5.52099 33.1488 6.18491 33.8128C6.85725 34.4842 7.48357 34.8868 8.34373 35.2188C9.33237 35.601 10.383 35.8122 11.9442 35.8844C14.1524 35.9878 14.9241 36 20.002 36C24.951 36 25.7576 35.9868 28.0592 35.8844C29.6234 35.811 30.677 35.5992 31.654 35.2212C32.5208 34.8846 33.1504 34.4804 33.8148 33.817C34.4872 33.1436 34.889 32.5188 35.2214 31.6566C35.6026 30.6716 35.8142 29.6196 35.8864 28.0578C35.9898 25.8496 36.002 25.0778 36.002 20C36.002 15.051 35.9888 14.2444 35.8864 11.9427C35.8128 10.3781 35.601 9.32298 35.2226 8.34636C34.8868 7.48076 34.4834 6.8527 33.8168 6.1851C33.146 5.5143 32.5232 5.11386 31.6542 4.77884C30.676 4.39908 29.6248 4.18792 28.0596 4.11562C25.8516 4.0121 25.0798 4 20.002 4ZM20.002 0C25.4352 0 26.1136 0.0199999 28.247 0.12C30.3752 0.21834 31.827 0.555 33.102 1.05C34.4202 1.55834 35.5336 2.245 36.6452 3.35666C37.7552 4.46834 38.442 5.585 38.952 6.9C39.4452 8.17334 39.782 9.62666 39.882 11.755C39.977 13.8883 40.002 14.5667 40.002 20C40.002 25.4334 39.982 26.1116 39.882 28.245C39.7836 30.3734 39.4452 31.825 38.952 33.1C38.4436 34.4184 37.7552 35.5316 36.6452 36.6434C35.5336 37.7534 34.4152 38.44 33.102 38.95C31.827 39.4434 30.3752 39.78 28.247 39.88C26.1136 39.975 25.4352 40 20.002 40C14.5686 40 13.8903 39.98 11.757 39.88C9.62861 39.7816 8.17861 39.4434 6.90195 38.95C5.58527 38.4416 4.47027 37.7534 3.35861 36.6434C2.24695 35.5316 1.56195 34.4134 1.05195 33.1C0.556953 31.825 0.221953 30.3734 0.121953 28.245C0.0269535 26.1116 0.00195312 25.4334 0.00195312 20C0.00195312 14.5667 0.0219535 13.8883 0.121953 11.755C0.220273 9.625 0.556953 8.175 1.05195 6.9C1.56027 5.58334 2.24695 4.46834 3.35861 3.35666C4.47027 2.245 5.58695 1.56 6.90195 1.05C8.17695 0.555 9.62695 0.22 11.757 0.12C13.8903 0.0249999 14.5686 0 20.002 0Z" fill="black"/>
</svg>
