<svg width="36" height="36" viewBox="0 0 36 36" fill="none" xmlns="http://www.w3.org/2000/svg">
<path d="M30.6724 30.678H25.3414V22.3244C25.3414 20.3324 25.301 17.769 22.5634 17.769C19.784 17.769 19.3594 19.9366 19.3594 22.1774V30.678H14.0284V13.5H19.1494V15.8414H19.2184C19.934 14.4914 21.674 13.0665 24.2734 13.0665C29.675 13.0665 30.674 16.6216 30.674 21.249L30.6724 30.678ZM8.00745 11.1495C6.29145 11.1495 4.91295 9.7605 4.91295 8.052C4.91295 6.345 6.29295 4.9575 8.00745 4.9575C9.71745 4.9575 11.1035 6.345 11.1035 8.052C11.1035 9.7605 9.71595 11.1495 8.00745 11.1495ZM10.6805 30.678H5.33445V13.5H10.6805V30.678ZM33.3394 0H2.65845C1.18995 0 0.00195312 1.161 0.00195312 2.5935V33.4066C0.00195312 34.8404 1.18995 36 2.65845 36H33.335C34.802 36 36.002 34.8404 36.002 33.4066V2.5935C36.002 1.161 34.802 0 33.335 0H33.3394Z" fill="black"/>
</svg>
