<svg xmlns="http://www.w3.org/2000/svg" viewBox="0 0 610.79 371.64"><defs><style>.cls-1{fill:#ededed;}</style></defs><g id="Camada_2" data-name="Camada 2"><g id="Camada_1-2" data-name="Camada 1"><path class="cls-1" d="M148,219.5a40.86,40.86,0,0,1-14.67,17.57,38.55,38.55,0,0,1-21.76,6.28q-18,0-28.52-13.54T72.52,193.39Q72.52,170.52,83,157t28.52-13.54a38.56,38.56,0,0,1,21.76,6.29A40.92,40.92,0,0,1,148,167.29h75.42q-4.85-27.09-19.5-47.39a98,98,0,0,0-38-31.42q-23.37-11.12-53-11.12Q78.32,77.36,52.86,92a98.93,98.93,0,0,0-39.16,41.1Q0,159.55,0,193.39t13.7,60.28a98.85,98.85,0,0,0,39.16,41.09q25.46,14.67,60,14.67,29.66,0,53-11.12a98.05,98.05,0,0,0,38-31.43q14.65-20.31,19.5-47.38Z"/><polygon class="cls-1" points="307.17 0 221.43 371.63 290.09 371.63 375.5 0 307.17 0"/><path class="cls-1" d="M527.63,79.61H445.12L361.64,307.82h75.1L448,273.33h76.07l11.28,34.49h75.42ZM465.43,219.5,486.05,156l20.63,63.5Z"/></g></g></svg>